<?xml version="1.0" encoding="UTF-8"?>
<svg version="1.1" xmlns="http://www.w3.org/2000/svg" width="349" height="114">
<path d="M0 0 C115.17 0 230.34 0 349 0 C349 37.62 349 75.24 349 114 C233.83 114 118.66 114 0 114 C0 76.38 0 38.76 0 0 Z " fill="#FCFCFE" transform="translate(0,0)"/>
<path d="M0 0 C0.66 0 1.32 0 2 0 C2 9.24 2 18.48 2 28 C106.61 28 211.22 28 319 28 C319 18.76 319 9.52 319 0 C319.66 0 320.32 0 321 0 C321 9.9 321 19.8 321 30 C215.07 30 109.14 30 0 30 C0 20.1 0 10.2 0 0 Z " fill="#2E80C2" transform="translate(13,83)"/>
<path d="M0 0 C105.93 0 211.86 0 321 0 C321 6.27 321 12.54 321 19 C320.34 19 319.68 19 319 19 C319 13.39 319 7.78 319 2 C214.39 2 109.78 2 2 2 C2 7.61 2 13.22 2 19 C1.34 19 0.68 19 0 19 C0 12.73 0 6.46 0 0 Z " fill="#2D80C2" transform="translate(13,2)"/>
<path d="M0 0 C3.08230005 2.12825479 4.79796727 3.50978698 6.625 6.8125 C7.44940161 11.84303225 7.19268467 15.6561053 4.9375 20.25 C1.89023745 23.62669634 -0.71243971 25.52030616 -5.2421875 26.31640625 C-10.53197453 26.41945405 -14.3689027 26.49032322 -18.5625 23 C-21.75326159 19.85581887 -22.54267753 16.91327431 -22.6875 12.5 C-22.62742941 7.88207302 -21.47943184 5.33644966 -18.375 1.8125 C-13.20945281 -2.74533575 -6.16655578 -2.16971407 0 0 Z " fill="#210AB0" transform="translate(150.375,43.1875)"/>
<path d="M0 0 C4.59844658 2.89531822 7.28025033 5.84075098 9 11 C9.87270018 18.12166446 9.40453045 23.24964081 5 29 C2.54689279 30.94556779 0.8193777 31.02726374 -2.3125 31.5 C-7.32829729 30.81989189 -9.68990041 28.70354812 -13 25 C-16.73187715 19.82352524 -16.84299522 14.1666933 -16 8 C-12.29700468 0.72169885 -7.84380343 -1.30059647 0 0 Z " fill="#FAFAFD" transform="translate(297,36)"/>
<path d="M0 0 C3.91652632 -0.08714316 7.83280311 -0.14043985 11.75 -0.1875 C12.86117188 -0.21263672 13.97234375 -0.23777344 15.1171875 -0.26367188 C16.18710937 -0.27333984 17.25703125 -0.28300781 18.359375 -0.29296875 C19.34389648 -0.3086792 20.32841797 -0.32438965 21.34277344 -0.34057617 C24.4426321 0.05673206 25.79193502 0.81473499 28 3 C28.61126842 6.51479339 28.31286593 8.38916652 26.6875 11.5625 C21.77879593 16.01458043 15.65287261 19 9 19 C9.11339204 21.64680904 9.24012873 24.29177518 9.375 26.9375 C9.4059375 27.69224609 9.436875 28.44699219 9.46875 29.22460938 C9.5726315 31.15507395 9.77895614 33.07942081 10 35 C10.66 35.33 11.32 35.66 12 36 C8.04 36 4.08 36 0 36 C0.66 35.34 1.32 34.68 2 34 C2.24501495 31.56823603 2.37324921 29.24135116 2.4140625 26.8046875 C2.43342865 26.09724396 2.4527948 25.38980042 2.4727478 24.66091919 C2.53257652 22.39906915 2.57894101 20.1371683 2.625 17.875 C2.66317686 16.3424256 2.70222842 14.80987272 2.7421875 13.27734375 C2.83828039 9.51840376 2.92229849 5.75936332 3 2 C2.01 1.67 1.02 1.34 0 1 C0 0.67 0 0.34 0 0 Z " fill="#331EB6" transform="translate(244,33)"/>
<path d="M0 0 C5.27520932 3.17731254 8.64515125 6.95363434 10.3046875 12.92578125 C11.23022706 18.00734941 10.7404455 21.76380004 8.1171875 26.23828125 C4.78507806 30.9595518 0.95629629 34.3844334 -4.6953125 35.92578125 C-11.20450922 36.75036279 -16.31587718 35.75818942 -21.6953125 31.92578125 C-25.28610633 28.51319059 -27.48429486 25.29194628 -27.93359375 20.25390625 C-28.09596409 13.51981 -28.02006242 9.2235999 -23.6953125 3.92578125 C-17.26685829 -2.26575205 -8.21595289 -3.27447398 0 0 Z M-19.6953125 5.92578125 C-22.57038324 10.65639409 -22.42309209 15.55655022 -21.6953125 20.92578125 C-19.68629681 25.93171705 -16.40699506 30.23339122 -11.6953125 32.92578125 C-7.89775701 33.40047569 -5.48721925 33.2497431 -1.9453125 31.80078125 C1.64708216 28.80711904 3.01399544 26.01493076 3.66015625 21.37109375 C4.0734481 13.30631768 1.74172524 8.85382438 -3.4453125 2.92578125 C-9.43134853 0.26532079 -15.23837648 1.06366922 -19.6953125 5.92578125 Z " fill="#250FB1" transform="translate(302.6953125,34.07421875)"/>
<path d="M0 0 C1.18239258 0.02707031 1.18239258 0.02707031 2.38867188 0.0546875 C4.32214261 0.10155952 6.25498285 0.1732959 8.1875 0.25 C9.54355968 4.10462635 10.42893238 7.1456496 10.1875 11.25 C9.61 10.46625 9.0325 9.6825 8.4375 8.875 C5.77488995 5.76862161 3.93827524 4.39493173 -0.171875 4.0546875 C-0.96078125 4.07789063 -1.7496875 4.10109375 -2.5625 4.125 C-3.76132812 4.15207031 -3.76132812 4.15207031 -4.984375 4.1796875 C-5.88929688 4.21449219 -5.88929688 4.21449219 -6.8125 4.25 C-7.4725 5.9 -8.1325 7.55 -8.8125 9.25 C-8.19503906 9.42015625 -7.57757813 9.5903125 -6.94140625 9.765625 C7.29459318 13.83924432 7.29459318 13.83924432 12.8125 18.4375 C14.82720544 22.5584884 14.54928345 25.91275908 13.1875 30.25 C10.36470865 33.93531093 7.69361175 36.09727374 3.1875 37.25 C-2.86205259 37.65330351 -7.94250287 36.71749928 -13.8125 35.25 C-14.4725 31.29 -15.1325 27.33 -15.8125 23.25 C-15.255625 23.9925 -14.69875 24.735 -14.125 25.5 C-10.08813897 30.55869408 -10.08813897 30.55869408 -4.15234375 32.56640625 C1.86604816 32.76574755 1.86604816 32.76574755 7.1875 30.25 C7.85426878 26.79250051 7.85426878 26.79250051 7.1875 23.25 C2.90585082 20.06401785 -1.91519838 18.88338799 -6.97265625 17.41015625 C-10.11779653 16.12527776 -11.72227123 14.91430568 -13.8125 12.25 C-14.37890625 10.25 -14.37890625 10.25 -14.375 8.25 C-14.39691406 7.59 -14.41882813 6.93 -14.44140625 6.25 C-12.29166905 -0.58643134 -5.91136039 -0.25766198 0 0 Z " fill="#2A14B3" transform="translate(332.8125,32.75)"/>
<path d="M0 0 C0.33 4.62 0.66 9.24 1 14 C1.845625 13.34 2.69125 12.68 3.5625 12 C7.48779735 9.71619063 9.53504887 9.41028947 14 10 C16.20793982 11.61511167 16.9112553 12.50809151 17.40063477 15.22070312 C17.41408936 16.06568359 17.42754395 16.91066406 17.44140625 17.78125 C17.46783203 18.70550781 17.49425781 19.62976563 17.52148438 20.58203125 C17.53501953 21.54496094 17.54855469 22.50789063 17.5625 23.5 C17.59695343 25.40642292 17.63956863 27.31272056 17.69140625 29.21875 C17.70373291 30.06373047 17.71605957 30.90871094 17.72875977 31.77929688 C17.86602669 34.28624754 17.86602669 34.28624754 20 37 C16.37 37 12.74 37 9 37 C9.66 36.34 10.32 35.68 11 35 C11.29316768 32.98254821 11.29316768 32.98254821 11.23046875 30.68359375 C11.22756836 29.41418945 11.22756836 29.41418945 11.22460938 28.11914062 C11.21236328 27.23419922 11.20011719 26.34925781 11.1875 25.4375 C11.18685547 24.54869141 11.18621094 23.65988281 11.18554688 22.74414062 C11.53382754 18.54366809 11.53382754 18.54366809 10 15 C6.51944126 15.17567358 6.51944126 15.17567358 3 16 C0.49493877 19.75759185 0.7395537 22.72027577 0.8125 27.0625 C0.81314453 27.79533203 0.81378906 28.52816406 0.81445312 29.28320312 C0.77534086 33.27190586 0.77534086 33.27190586 2 37 C-1.63 37 -5.26 37 -9 37 C-8.01 36.505 -8.01 36.505 -7 36 C-6.67 25.11 -6.34 14.22 -6 3 C-6.99 2.67 -7.98 2.34 -9 2 C-9 1.67 -9 1.34 -9 1 C-5.846632 0.29925156 -3.27275026 0 0 0 Z " fill="#2912B3" transform="translate(45,32)"/>
<path d="M0 0 C4.15149156 1.53758947 6.80535189 3.09840336 9 7 C9 7.99 9 8.98 9 10 C6.60612843 10.67449966 4.21030779 11.33976641 1.8125 12 C1.13896484 12.19078125 0.46542969 12.3815625 -0.22851562 12.578125 C-3.90555156 13.5825836 -7.1850182 14.23704741 -11 14 C-8.87021149 20.10330217 -8.87021149 20.10330217 -4 24 C0.65979072 24.5948669 3.22223588 23.7283852 7 21 C7.66 20.34 8.32 19.68 9 19 C8.47731534 21.76276177 7.89130413 24.3260876 7 27 C4.62374823 27.10883596 2.25256024 27.18766696 -0.125 27.25 C-0.79015625 27.28351563 -1.4553125 27.31703125 -2.140625 27.3515625 C-7.29011628 27.45253292 -10.04325131 26.21776769 -14 23 C-16.75374623 19.73898473 -17.89487343 17.73588601 -18.5 13.5 C-17.75071213 8.25498489 -15.32750226 5.44128817 -11.8125 1.625 C-7.82825707 -0.67700703 -4.49768694 -0.65839156 0 0 Z " fill="#321DB6" transform="translate(213,42)"/>
<path d="M0 0 C2.72635582 1.37137337 3.91372243 2.64625095 6 5 C6.65234375 7.171875 6.65234375 7.171875 7 9 C0.38603107 11.5466871 -6.04223041 13.63125844 -13 15 C-10.68477065 19.72815038 -10.68477065 19.72815038 -7.125 23.4375 C-4.20686068 24.20994864 -2.01132541 24.36873372 1 24 C3.64748202 22.19489862 5.74080266 20.25919734 8 18 C7.43945339 21.36327963 6.58158962 23.99112219 5 27 C2.62374823 27.10883596 0.25256024 27.18766696 -2.125 27.25 C-2.79015625 27.28351563 -3.4553125 27.31703125 -4.140625 27.3515625 C-9.2853976 27.45244039 -12.03563388 26.19745006 -16 23 C-19.36548613 19.18578239 -19.56823655 15.35183638 -19.421875 10.44140625 C-18.72071026 6.38373994 -17.02786468 4.75260426 -14 2 C-9.53834881 -0.69752551 -5.07687838 -0.79151332 0 0 Z " fill="#2610B2" transform="translate(89,42)"/>
<path d="M0 0 C2.171875 1.37109375 2.171875 1.37109375 4 4 C4.59081702 7.5353728 4.60576011 11.04638087 4.625 14.625 C4.65045313 16.53398467 4.68391048 18.44288465 4.7265625 20.3515625 C4.73550537 21.61734131 4.73550537 21.61734131 4.74462891 22.90869141 C4.80884531 25.21963499 4.80884531 25.21963499 7 27 C3.04 27 -0.92 27 -5 27 C-4.34 26.34 -3.68 25.68 -3 25 C-2.72285104 22.86747907 -2.72285104 22.86747907 -2.8046875 20.4296875 C-2.81113281 19.53378906 -2.81757813 18.63789062 -2.82421875 17.71484375 C-2.84097656 16.77769531 -2.85773438 15.84054688 -2.875 14.875 C-2.88402344 13.93011719 -2.89304688 12.98523437 -2.90234375 12.01171875 C-2.92595478 9.67422708 -2.95888484 7.33723877 -3 5 C-5.83151973 4.58190799 -5.83151973 4.58190799 -9 5 C-11.47760285 7.07970968 -12.78550028 8.66210921 -13.30664062 11.91259766 C-13.39357325 14.06114757 -13.34980712 16.16472762 -13.25 18.3125 C-13.22292969 19.42334961 -13.22292969 19.42334961 -13.1953125 20.55664062 C-13.14847337 22.3716571 -13.07673789 24.18600166 -13 26 C-12.34 26.33 -11.68 26.66 -11 27 C-14.63 27 -18.26 27 -22 27 C-21.67 26.34 -21.34 25.68 -21 25 C-20.90397687 23.35637388 -20.86925439 21.70892734 -20.8671875 20.0625 C-20.86589844 19.08539063 -20.86460937 18.10828125 -20.86328125 17.1015625 C-20.86714844 16.07804687 -20.87101563 15.05453125 -20.875 14 C-20.87113281 12.97648437 -20.86726562 11.95296875 -20.86328125 10.8984375 C-20.86457031 9.92132813 -20.86585938 8.94421875 -20.8671875 7.9375 C-20.86887939 6.58978516 -20.86887939 6.58978516 -20.87060547 5.21484375 C-20.85636916 2.95868875 -20.85636916 2.95868875 -22 1 C-19.69 1 -17.38 1 -15 1 C-14.34 2.32 -13.68 3.64 -13 5 C-12.154375 4.175 -11.30875 3.35 -10.4375 2.5 C-6.98260601 -0.36682693 -4.50022931 -0.75003822 0 0 Z " fill="#2812B2" transform="translate(184,42)"/>
<path d="M0 0 C9.24 0 18.48 0 28 0 C30.25 6.75 30.25 6.75 29 10 C27.9790625 8.824375 27.9790625 8.824375 26.9375 7.625 C23.64593016 4.68359716 21.21879328 4.0633943 17 3 C17.0934535 7.3786383 17.19952754 11.75673196 17.31738281 16.13476562 C17.35569998 17.62458889 17.39054808 19.11450554 17.421875 20.60449219 C17.46746729 22.74448048 17.52546874 24.88382436 17.5859375 27.0234375 C17.63306885 28.95582275 17.63306885 28.95582275 17.68115234 30.92724609 C17.68458268 34.10481505 17.68458268 34.10481505 20 36 C16.04 36 12.08 36 8 36 C8.66 35.34 9.32 34.68 10 34 C10.37322427 30.89243985 10.37322427 30.89243985 10.4140625 27.2421875 C10.43342865 26.57913605 10.4527948 25.91608459 10.4727478 25.23294067 C10.53255954 23.11375823 10.57893388 20.9945215 10.625 18.875 C10.66317845 17.43877831 10.70223011 16.00257955 10.7421875 14.56640625 C10.83826125 11.04448064 10.92228642 7.52238392 11 4 C9.55105314 4.26625222 8.10492465 4.54787238 6.66015625 4.8359375 C5.85457275 4.9911084 5.04898926 5.1462793 4.21899414 5.30615234 C1.01066789 6.30934997 -0.29946229 8.19041596 -2 11 C-1.125 3.375 -1.125 3.375 0 0 Z " fill="#2A14B3" transform="translate(4,33)"/>
<path d="M0 0 C0.66 0 1.32 0 2 0 C2 9.24 2 18.48 2 28 C8.73083984 27.98259766 8.73083984 27.98259766 15.59765625 27.96484375 C22.08593456 27.95235808 28.57421301 27.9439462 35.0625 27.9375 C35.91766205 27.93664398 36.7728241 27.93578796 37.65390015 27.93490601 C72.60453912 27.90421345 107.55111468 28.16789434 142.5 28.5 C143.75883625 28.51195782 145.0176725 28.52391563 146.3146553 28.53623581 C161.87650017 28.68462741 177.43827783 28.83927151 193 29 C193 29.33 193 29.66 193 30 C129.31 30 65.62 30 0 30 C0 20.1 0 10.2 0 0 Z " fill="#68CCE0" transform="translate(13,83)"/>
<path d="M0 0 C12.8958265 -0.03089561 25.79164092 -0.05140383 38.6875 -0.0625 C39.67502384 -0.06335602 40.66254768 -0.06421204 41.67999649 -0.06509399 C78.18472429 -0.0929056 114.68462421 0.14367081 151.1875 0.5 C152.41300442 0.51195782 153.63850883 0.52391563 154.90114975 0.53623581 C169.93417685 0.68357905 184.9671225 0.83813019 200 1 C200 1.33 200 1.66 200 2 C134.66 2 69.32 2 2 2 C2 7.61 2 13.22 2 19 C1.34 19 0.68 19 0 19 C0 12.73 0 6.46 0 0 Z " fill="#66C9DF" transform="translate(13,2)"/>
<path d="M0 0 C2.88258588 0.65701649 4.18570607 2.0989665 5.90234375 4.43359375 C7.75762182 8.14414989 7.34809652 12.38361146 6.90234375 16.43359375 C4.88971238 20.37835124 3.6685735 21.18282765 -0.53515625 22.55859375 C-4.09765625 22.43359375 -4.09765625 22.43359375 -6.97265625 20.12109375 C-10.72496365 15.37552851 -10.73875304 11.35212502 -10.09765625 5.43359375 C-7.73658589 0.51469717 -5.16739734 -0.31754956 0 0 Z " fill="#F9F8FC" transform="translate(144.09765625,44.56640625)"/>
<path d="M0 0 C5.57894737 3.15789474 5.57894737 3.15789474 7 6 C7.50761671 10.39934481 7.25800237 12.54225386 5.0625 16.4375 C1.48106205 19.43421338 -0.29669582 19.84907564 -4.84375 19.515625 C-8.46739079 18.6491022 -9.93805301 17.02848464 -12 14 C-13.125 10.5625 -13.125 10.5625 -13 7 C-9.80109168 1.39250188 -6.36984983 -0.61248556 0 0 Z " fill="#F6F5FB" transform="translate(44,77)"/>
<path d="M0 0 C6.93 0 13.86 0 21 0 C16.10879425 7.7444091 11.10822037 15.39737592 6 23 C11.6681537 23.62914287 11.6681537 23.62914287 16.93359375 21.88671875 C18.75671183 20.37805255 18.75671183 20.37805255 21 18 C20.41321669 21.52069985 19.64350079 23.71299843 18 27 C10.74 27 3.48 27 -4 27 C1.11628049 18.83572262 6.4708082 10.88630758 12 3 C10.39431334 3.28317926 8.79047953 3.57687791 7.1875 3.875 C5.84751953 4.11863281 5.84751953 4.11863281 4.48046875 4.3671875 C1.77272154 4.91188449 1.77272154 4.91188449 -1 7 C-0.67 4.69 -0.34 2.38 0 0 Z " fill="#2610B2" transform="translate(104,42)"/>
<path d="M0 0 C4.29 0 8.58 0 13 0 C13 0.66 13 1.32 13 2 C11.02 2.33 9.04 2.66 7 3 C7 7.29 7 11.58 7 16 C7.66 16 8.32 16 9 16 C9 16.66 9 17.32 9 18 C8.34 18 7.68 18 7 18 C7.11339204 20.64680904 7.24012873 23.29177518 7.375 25.9375 C7.4059375 26.69224609 7.436875 27.44699219 7.46875 28.22460938 C7.5726315 30.15507395 7.77895614 32.07942081 8 34 C8.66 34.33 9.32 34.66 10 35 C6.04 35 2.08 35 -2 35 C-1.34 34.34 -0.68 33.68 0 33 C0.17495606 30.49079154 0.23169569 28.09375059 0.1953125 25.5859375 C0.19106766 24.49147812 0.19106766 24.49147812 0.18673706 23.37490845 C0.17553002 21.04143972 0.1504251 18.70835297 0.125 16.375 C0.11497085 14.79427637 0.10584489 13.21354673 0.09765625 11.6328125 C0.07558905 7.75506086 0.04105615 3.87759522 0 0 Z " fill="#1F08AF" transform="translate(246,34)"/>
<path d="M0 0 C-1 3 -1 3 -2.4375 4.3125 C-4.56496206 6.61015902 -5.14128008 9.02750796 -6 12 C-5.34 12.33 -4.68 12.66 -4 13 C-3.87625 13.763125 -3.7525 14.52625 -3.625 15.3125 C-2.85375497 18.62885365 -1.56228498 19.82594002 1 22 C3.85324437 23.42662219 5.83454549 23.31033868 9 23 C11.64748202 21.19489862 13.74080266 19.25919734 16 17 C15.43945339 20.36327963 14.58158962 22.99112219 13 26 C10.62374823 26.10883596 8.25256024 26.18766696 5.875 26.25 C5.20984375 26.28351563 4.5446875 26.31703125 3.859375 26.3515625 C-1.2853976 26.45244039 -4.03563388 25.19745006 -8 22 C-11.36548613 18.18578239 -11.56823655 14.35183638 -11.421875 9.44140625 C-10.72071026 5.38373994 -9.02786468 3.75260426 -6 1 C-2.54320988 -1.27160494 -2.54320988 -1.27160494 0 0 Z " fill="#250EB1" transform="translate(81,43)"/>
<path d="M0 0 C-1.20381448 2.49361571 -2.45428722 4.68143083 -4 7 C-4.24787438 11.8748628 -3.6797402 15.92557194 -1.0625 20.0625 C1.435023 22.40865797 2.39155085 22.94591563 5.8125 23.25 C10.325014 22.89607733 12.84894269 21.15105731 16 18 C15.47731534 20.76276177 14.89130413 23.3260876 14 26 C11.62374823 26.10883596 9.25256024 26.18766696 6.875 26.25 C6.20984375 26.28351563 5.5446875 26.31703125 4.859375 26.3515625 C-0.29011628 26.45253292 -3.04325131 25.21776769 -7 22 C-9.75374623 18.73898473 -10.89487343 16.73588601 -11.5 12.5 C-10.80074497 7.60521482 -8.51618947 4.89523684 -5.5 1.125 C-4 0 -4 0 0 0 Z " fill="#220CB0" transform="translate(206,43)"/>
<path d="M0 0 C2.4375 1.625 2.4375 1.625 4 4 C4.60605429 7.63632575 4.47161336 9.28314769 2.4375 12.375 C-0.93510779 14.62340519 -3.02512383 14.56783945 -7 14 C-9.4375 12.375 -9.4375 12.375 -11 10 C-11.60605429 6.36367425 -11.47161336 4.71685231 -9.4375 1.625 C-6.06489221 -0.62340519 -3.97487617 -0.56783945 0 0 Z " fill="#321DB6" transform="translate(124,82)"/>
<path d="M0 0 C2.5 1.5625 2.5 1.5625 4 4 C3.93957505 7.44422213 3.60093625 9.90417507 1.9375 12.9375 C-1.25902171 14.69043126 -4.44932174 14.51780725 -8 14 C-10 13 -10 13 -11 11 C-11.45439787 8.23910156 -11.50533624 5.75637948 -11 3 C-8.06403859 -0.7580306 -4.50318499 -0.56289812 0 0 Z " fill="#3621B7" transform="translate(227,82)"/>
<path d="M0 0 C1.98 0 3.96 0 6 0 C6 6.27 6 12.54 6 19 C4.02 19 2.04 19 0 19 C0 14.71 0 10.42 0 6 C-1.98 8.97 -1.98 8.97 -4 12 C-6.0245738 10.06745228 -7.42105792 8.36841312 -9 6 C-9 10.29 -9 14.58 -9 19 C-10.32 18.67 -11.64 18.34 -13 18 C-12.67 12.39 -12.34 6.78 -12 1 C-7 2 -7 2 -5.1875 4.5625 C-4.795625 5.366875 -4.40375 6.17125 -4 7 C-2.10786631 4.61426621 -0.97608217 2.92824652 0 0 Z " fill="#4835BE" transform="translate(256,77)"/>
<path d="M0 0 C6.4846585 -0.36705614 6.4846585 -0.36705614 8.70288086 1.21289062 C10.37606973 3.51813108 10.39629212 4.94797462 10.44140625 7.78125 C10.46783203 8.70550781 10.49425781 9.62976563 10.52148438 10.58203125 C10.53501953 11.54496094 10.54855469 12.50789063 10.5625 13.5 C10.59695343 15.40642292 10.63956863 17.31272056 10.69140625 19.21875 C10.70373291 20.06373047 10.71605957 20.90871094 10.72875977 21.77929688 C10.86602669 24.28624754 10.86602669 24.28624754 13 27 C9.37 27 5.74 27 2 27 C2.66 26.34 3.32 25.68 4 25 C4.49822367 21.89791257 4.41661359 18.76260365 4.4375 15.625 C4.47037109 14.76132812 4.50324219 13.89765625 4.53710938 13.0078125 C4.63902504 7.62561331 4.63902504 7.62561331 1.47265625 3.3984375 C0.65667969 2.93695313 -0.15929688 2.47546875 -1 2 C-0.67 1.34 -0.34 0.68 0 0 Z " fill="#1C05AE" transform="translate(52,42)"/>
<path d="M0 0 C3 2 3 2 3.5625 4.3125 C2.87498602 7.59728902 1.43922183 8.92724333 -1.19921875 10.9296875 C-4.03503974 12.61518631 -6.78633979 13.29299475 -10 14 C-10 9.71 -10 5.42 -10 1 C-6.87293041 -0.5635348 -3.42017557 -0.39958487 0 0 Z " fill="#F3F2FA" transform="translate(263,36)"/>
<path d="M0 0 C5.57894737 3.15789474 5.57894737 3.15789474 7 6 C7.50761671 10.39934481 7.25800237 12.54225386 5.0625 16.4375 C1.48106205 19.43421338 -0.29669582 19.84907564 -4.84375 19.515625 C-8.46739079 18.6491022 -9.93805301 17.02848464 -12 14 C-13.125 10.5625 -13.125 10.5625 -13 7 C-9.80109168 1.39250188 -6.36984983 -0.61248556 0 0 Z M-7.875 3 C-9.69544934 6.23635438 -9.60820658 9.44060923 -9 13 C-7.65021698 16.16821233 -7.65021698 16.16821233 -5 18 C-1.36760187 18.1716367 -1.36760187 18.1716367 2 17 C4.35620437 13.46569344 4.48991613 12.16428713 4 8 C2.53790702 4.55636106 2.53790702 4.55636106 0 2 C-3.22227768 1.40815308 -4.9799455 1.45597094 -7.875 3 Z " fill="#2D17B4" transform="translate(44,77)"/>
<path d="M0 0 C0.80824219 0.11988281 1.61648437 0.23976563 2.44921875 0.36328125 C3.06410156 0.47027344 3.67898437 0.57726562 4.3125 0.6875 C3.9825 1.6775 3.6525 2.6675 3.3125 3.6875 C2.9825 3.3575 2.6525 3.0275 2.3125 2.6875 C-0.01567964 2.31989269 -2.3493385 1.98508419 -4.6875 1.6875 C-4.02926479 4.79372309 -4.02926479 4.79372309 -1.69140625 5.78515625 C-0.48291016 6.26275391 -0.48291016 6.26275391 0.75 6.75 C3.56183055 7.87382955 5.1497207 8.5247207 7.3125 10.6875 C7.125 13.6875 7.125 13.6875 6.3125 16.6875 C2.89155758 18.96812828 1.63062778 18.90675007 -2.375 18.8125 C-3.86580078 18.78542969 -3.86580078 18.78542969 -5.38671875 18.7578125 C-6.14597656 18.73460938 -6.90523437 18.71140625 -7.6875 18.6875 C-8.0175 16.3775 -8.3475 14.0675 -8.6875 11.6875 C-8.0275 13.0075 -7.3675 14.3275 -6.6875 15.6875 C-3.3875 15.6875 -0.0875 15.6875 3.3125 15.6875 C3.3125 14.3675 3.3125 13.0475 3.3125 11.6875 C2.60222656 11.45675781 1.89195312 11.22601563 1.16015625 10.98828125 C0.24105469 10.66214844 -0.67804688 10.33601563 -1.625 10 C-2.54152344 9.68675781 -3.45804688 9.37351562 -4.40234375 9.05078125 C-6.6875 7.6875 -6.6875 7.6875 -7.69140625 5.23046875 C-7.6875 2.6875 -7.6875 2.6875 -6.54296875 0.85546875 C-4.09881075 -0.68306439 -2.82088184 -0.4497058 0 0 Z " fill="#2E18B4" transform="translate(206.6875,77.3125)"/>
<path d="M0 0 C1.32 0 2.64 0 4 0 C4.33 1.98 4.66 3.96 5 6 C6.134375 5.814375 7.26875 5.62875 8.4375 5.4375 C10.2009375 5.2209375 10.2009375 5.2209375 12 5 C13.87824891 6.87824891 13.39102397 10.03935276 13.5625 12.5625 C13.64628906 13.76003906 13.73007812 14.95757812 13.81640625 16.19140625 C13.87699219 17.11824219 13.93757813 18.04507813 14 19 C12.35 19 10.7 19 9 19 C9.33 15.04 9.66 11.08 10 7 C8.35 7.66 6.7 8.32 5 9 C5 12.3 5 15.6 5 19 C3.35 19 1.7 19 0 19 C0 12.73 0 6.46 0 0 Z " fill="#301BB5" transform="translate(298,77)"/>
<path d="M0 0 C1.32 0 2.64 0 4 0 C4.33 2.31 4.66 4.62 5 7 C5.99 6.34 6.98 5.68 8 5 C12.54054054 5.54054054 12.54054054 5.54054054 14 7 C14.07244053 9.01964199 14.08377188 11.04167124 14.0625 13.0625 C14.05347656 14.16722656 14.04445312 15.27195312 14.03515625 16.41015625 C14.02355469 17.26480469 14.01195312 18.11945313 14 19 C12.68 18.67 11.36 18.34 10 18 C10 14.7 10 11.4 10 8 C6.25724788 8.57125354 6.25724788 8.57125354 5 10 C4.92820036 11.51928038 4.91607993 13.04167482 4.9375 14.5625 C4.94652344 15.38878906 4.95554688 16.21507813 4.96484375 17.06640625 C4.97644531 17.70449219 4.98804688 18.34257813 5 19 C3.35 19 1.7 19 0 19 C0 12.73 0 6.46 0 0 Z " fill="#321DB6" transform="translate(163,77)"/>
<path d="M0 0 C2.375 1.375 2.375 1.375 4 3 C4 3.66 4 4.32 4 5 C0.38026598 6.31626692 -2.09567131 7 -6 7 C-5.67 8.65 -5.34 10.3 -5 12 C-0.2102679 12.23428313 -0.2102679 12.23428313 4 10 C3.67 11.32 3.34 12.64 3 14 C-5.02638522 14.61741425 -5.02638522 14.61741425 -8.5625 12.375 C-10.43910956 9.27451464 -10.59452734 7.56716403 -10 4 C-7.20125452 -0.09047416 -4.83066808 -0.70447243 0 0 Z " fill="#3C28B9" transform="translate(81,82)"/>
<path d="M0 0 C1.32 0 2.64 0 4 0 C4.33 3.63 4.66 7.26 5 11 C6.32 10.67 7.64 10.34 9 10 C9 6.7 9 3.4 9 0 C10.65 0 12.3 0 14 0 C14 4.62 14 9.24 14 14 C13.01 14 12.02 14 11 14 C11 13.34 11 12.68 11 12 C10.443125 12.33 9.88625 12.66 9.3125 13 C6.69715478 14.1309601 4.8193354 14.15662974 2 14 C0.64908472 11.29816945 0.66141942 8.88191794 0.4375 5.875 C0.35371094 4.77929688 0.26992188 3.68359375 0.18359375 2.5546875 C0.12300781 1.71164063 0.06242187 0.86859375 0 0 Z " fill="#4D3BBF" transform="translate(265,82)"/>
<path d="M0 0 C1.65 0 3.3 0 5 0 C5 3.96 5 7.92 5 12 C6.32 11.67 7.64 11.34 9 11 C10.20272819 8.59454362 10.10071472 7.05003047 10.0625 4.375 C10.05347656 3.55773437 10.04445312 2.74046875 10.03515625 1.8984375 C10.02355469 1.27195312 10.01195312 0.64546875 10 0 C11.32 0 12.64 0 14 0 C14.33 4.62 14.66 9.24 15 14 C13.35 13.67 11.7 13.34 10 13 C7.66365343 13.31151288 5.32961443 13.64159778 3 14 C1.28132657 12.28132657 1.67079401 9.90786781 1.5 7.5625 C1.28580817 3.63565085 1.28580817 3.63565085 0 0 Z " fill="#321DB6" transform="translate(130,82)"/>
<path d="M0 0 C4.95 0 9.9 0 15 0 C14.67 1.32 14.34 2.64 14 4 C11.525 3.01 11.525 3.01 9 2 C9.33 7.61 9.66 13.22 10 19 C8.35 19 6.7 19 5 19 C5.33 13.39 5.66 7.78 6 2 C4.02 2.66 2.04 3.32 0 4 C0 2.68 0 1.36 0 0 Z " fill="#311CB6" transform="translate(96,77)"/>
<path d="M0 0 C1.9375 1.875 1.9375 1.875 3 4 C3 4.66 3 5.32 3 6 C1.23050388 6.50471197 -0.54065223 7.00360685 -2.3125 7.5 C-3.79169922 7.91765625 -3.79169922 7.91765625 -5.30078125 8.34375 C-8 9 -8 9 -11 9 C-10.6875 5.625 -10.6875 5.625 -10 2 C-6.29584707 -0.46943529 -4.37855495 -0.46913089 0 0 Z " fill="#F4F3FB" transform="translate(87,45)"/>
<path d="M0 0 C1.9375 1.3125 1.9375 1.3125 3 3 C3 3.99 3 4.98 3 6 C1.23050388 6.50471197 -0.54065223 7.00360685 -2.3125 7.5 C-3.79169922 7.91765625 -3.79169922 7.91765625 -5.30078125 8.34375 C-8 9 -8 9 -11 9 C-10.67470941 6.07238473 -10.40430823 3.67384706 -8.875 1.125 C-5.87553214 -0.67468071 -3.40613332 -0.36494286 0 0 Z " fill="#F6F5FB" transform="translate(212,45)"/>
<path d="M0 0 C2 0.6875 2 0.6875 4 2.6875 C4.3403296 5.88659824 4.52148335 7.8792008 2.75 10.625 C1 11.6875 1 11.6875 -1.0625 11.5625 C-3 10.6875 -3 10.6875 -5 7.6875 C-4.75 4.0625 -4.75 4.0625 -4 0.6875 C-2 -0.3125 -2 -0.3125 0 0 Z " fill="#F3F2FB" transform="translate(121,83.3125)"/>
<path d="M0 0 C4.55555556 0.55555556 4.55555556 0.55555556 6 2 C6.27314815 7.73611111 6.27314815 7.73611111 6 10 C5.34 10.66 4.68 11.32 4 12 C1.4375 11.75 1.4375 11.75 -1 11 C-2.50662097 7.98675805 -2.17770373 5.31713623 -2 2 C-1.34 1.34 -0.68 0.68 0 0 Z " fill="#F3F2FB" transform="translate(221,83)"/>
<path d="M0 0 C5 1 5 1 7.375 3.8125 C9 7 9 7 8.75 9.375 C8.37875 10.179375 8.37875 10.179375 8 11 C5.9754262 9.06745228 4.57894208 7.36841312 3 5 C3 9.29 3 13.58 3 18 C1.68 17.67 0.36 17.34 -1 17 C-0.67 11.39 -0.34 5.78 0 0 Z " fill="#2F19B5" transform="translate(244,78)"/>
<path d="M0 0 C1.21236328 0.04060547 1.21236328 0.04060547 2.44921875 0.08203125 C3.06410156 0.11683594 3.67898437 0.15164062 4.3125 0.1875 C3.9825 1.5075 3.6525 2.8275 3.3125 4.1875 C2.6525 3.5275 1.9925 2.8675 1.3125 2.1875 C-0.0075 2.1875 -1.3275 2.1875 -2.6875 2.1875 C-4.06875018 4.95000036 -3.87829306 7.13481099 -3.6875 10.1875 C-3.0275 10.8475 -2.3675 11.5075 -1.6875 12.1875 C1.90929066 11.86423447 1.90929066 11.86423447 5.3125 11.1875 C4.9825 12.1775 4.6525 13.1675 4.3125 14.1875 C-2.91641566 14.66942771 -2.91641566 14.66942771 -6.1875 12.625 C-8.24771138 9.27715651 -8.17875459 7.04735753 -7.6875 3.1875 C-5.43768699 0.08332761 -3.73107689 -0.16222073 0 0 Z " fill="#3520B7" transform="translate(155.6875,81.8125)"/>
<path d="M0 0 C1.8871875 0.061875 1.8871875 0.061875 3.8125 0.125 C3.4825 1.115 3.1525 2.105 2.8125 3.125 C2.02875 2.91875 1.245 2.7125 0.4375 2.5 C-0.42875 2.37625 -1.295 2.2525 -2.1875 2.125 C-2.8475 2.785 -3.5075 3.445 -4.1875 4.125 C-3.86423447 7.72179066 -3.86423447 7.72179066 -3.1875 11.125 C-0.32971967 11.80993373 -0.32971967 11.80993373 2.8125 12.125 C3.8025 11.465 4.7925 10.805 5.8125 10.125 C5.4825 11.445 5.1525 12.765 4.8125 14.125 C-2.29333942 14.72718978 -2.29333942 14.72718978 -6.25 12.0625 C-8.1875 9.125 -8.1875 9.125 -8.1875 5.4375 C-6.75726709 0.6998535 -4.65273593 -0.15254872 0 0 Z " fill="#311CB6" transform="translate(290.1875,81.875)"/>
<path d="M0 0 C6.93 0 13.86 0 21 0 C21 0.33 21 0.66 21 1 C18.36 1 15.72 1 13 1 C12.67 1.99 12.34 2.98 12 4 C10.783125 3.938125 9.56625 3.87625 8.3125 3.8125 C4.42249954 3.79177176 2.16367751 4.62724186 -1 7 C-0.67 4.69 -0.34 2.38 0 0 Z " fill="#422EBB" transform="translate(104,42)"/>
<path d="M0 0 C2.5625 -0.25 2.5625 -0.25 5 0 C6.87824891 1.87824891 6.39102397 5.03935276 6.5625 7.5625 C6.64628906 8.76003906 6.73007813 9.95757812 6.81640625 11.19140625 C6.87699219 12.11824219 6.93757813 13.04507813 7 14 C5.35 14 3.7 14 2 14 C2.33 10.04 2.66 6.08 3 2 C1.35 2.33 -0.3 2.66 -2 3 C-1.34 2.01 -0.68 1.02 0 0 Z " fill="#321DB6" transform="translate(61,82)"/>
<path d="M0 0 C0.33 0 0.66 0 1 0 C1 2.31 1 4.62 1 7 C1.66 7.33 2.32 7.66 3 8 C3 11.3 3 14.6 3 18 C1.35 18 -0.3 18 -2 18 C-1.85980308 15.18711295 -1.71312045 12.37483115 -1.5625 9.5625 C-1.52318359 8.76005859 -1.48386719 7.95761719 -1.44335938 7.13085938 C-1.11328125 1.11328125 -1.11328125 1.11328125 0 0 Z " fill="#220BB0" transform="translate(300,78)"/>
<path d="M0 0 C1.65 0 3.3 0 5 0 C5.06058594 0.84304687 5.12117187 1.68609375 5.18359375 2.5546875 C5.26738281 3.65039062 5.35117188 4.74609375 5.4375 5.875 C5.51871094 6.96554688 5.59992188 8.05609375 5.68359375 9.1796875 C5.83001703 11.94728971 5.83001703 11.94728971 7 14 C5.35 13.67 3.7 13.34 2 13 C1.93941406 12.22914062 1.87882813 11.45828125 1.81640625 10.6640625 C1.73261719 9.66117188 1.64882812 8.65828125 1.5625 7.625 C1.48128906 6.62726563 1.40007812 5.62953125 1.31640625 4.6015625 C1.15034374 2.02072387 1.15034374 2.02072387 0 0 Z " fill="#3B27B9" transform="translate(130,82)"/>
<path d="M0 0 C1.32 0 2.64 0 4 0 C4.93619813 3.15506142 5.1057123 5.96586502 5.0625 9.25 C5.05347656 10.14203125 5.04445313 11.0340625 5.03515625 11.953125 C5.02355469 12.62859375 5.01195312 13.3040625 5 14 C3.35 14 1.7 14 0 14 C0 9.38 0 4.76 0 0 Z " fill="#2B15B3" transform="translate(54,82)"/>
<path d="M0 0 C1.32 0 2.64 0 4 0 C4.06058594 0.75925781 4.12117188 1.51851563 4.18359375 2.30078125 C4.26738281 3.29464844 4.35117187 4.28851563 4.4375 5.3125 C4.51871094 6.29863281 4.59992188 7.28476563 4.68359375 8.30078125 C4.91812559 11.09375599 4.91812559 11.09375599 6 14 C4.68 14 3.36 14 2 14 C0.64908472 11.29816945 0.66141942 8.88191794 0.4375 5.875 C0.35371094 4.77929688 0.26992188 3.68359375 0.18359375 2.5546875 C0.12300781 1.71164063 0.06242187 0.86859375 0 0 Z " fill="#2C16B4" transform="translate(265,82)"/>
<path d="M0 0 C5.4 0.48 5.4 0.48 7.875 2.625 C9.42263996 5.89223991 9.33030318 8.43272567 9 12 C8.34 12.66 7.68 13.32 7 14 C6.74476562 13.11248047 6.74476562 13.11248047 6.484375 12.20703125 C4.99889662 7.36342355 3.53140647 3.77495174 0 0 Z " fill="#240EB1" transform="translate(42,78)"/>
<path d="M0 0 C0.226875 1.27875 0.45375 2.5575 0.6875 3.875 C1.16100084 6.06932132 1.16100084 6.06932132 2 8 C4.48313064 9.59688639 4.48313064 9.59688639 7 10 C7 10.33 7 10.66 7 11 C3.46322336 11.32152515 1.6037896 11.4131192 -1.375 9.375 C-3.4131192 6.3962104 -3.32152515 4.53677664 -3 1 C-1 0 -1 0 0 0 Z " fill="#2711B2" transform="translate(116,85)"/>
<path d="M0 0 C0.09796875 0.62648438 0.1959375 1.25296875 0.296875 1.8984375 C0.44640625 2.71570313 0.5959375 3.53296875 0.75 4.375 C0.88921875 5.18710938 1.0284375 5.99921875 1.171875 6.8359375 C1.81749261 9.17709092 1.81749261 9.17709092 4.078125 10.2890625 C4.71234375 10.52367188 5.3465625 10.75828125 6 11 C0.63157895 11.35789474 0.63157895 11.35789474 -1.875 9.9375 C-3.58196395 6.99772876 -3.18799766 4.32129197 -3 1 C-1 0 -1 0 0 0 Z " fill="#250FB1" transform="translate(219,85)"/>
<path d="M0 0 C0.33 0.66 0.66 1.32 1 2 C1.845625 1.649375 2.69125 1.29875 3.5625 0.9375 C7.45017533 -0.12277509 10.08425639 0.21685128 14 1 C11.11371599 2.57554035 8.46657616 3.46276373 5.25 4.125 C4.45078125 4.29257812 3.6515625 4.46015625 2.828125 4.6328125 C2.22484375 4.75398438 1.6215625 4.87515625 1 5 C0.67 3.35 0.34 1.7 0 0 Z " fill="#4532BD" transform="translate(75,52)"/>
<path d="M0 0 C-2 2 -2 2 -4.5 2.6875 C-7.40870037 3.85619103 -7.40870037 3.85619103 -8.3125 7.625 C-8.6528125 9.295625 -8.6528125 9.295625 -9 11 C-9.99 9.68 -10.98 8.36 -12 7 C-9.52030127 1.00739475 -6.36870588 -0.43422995 0 0 Z " fill="#4532BC" transform="translate(44,77)"/>
<path d="M0 0 C0 0.99 0 1.98 0 3 C-3.82320557 4.42258812 -6.91281305 5.24042276 -11 5 C-11.33 4.34 -11.66 3.68 -12 3 C-10.37604003 2.49663233 -8.75079459 1.99741024 -7.125 1.5 C-6.22007812 1.2215625 -5.31515625 0.943125 -4.3828125 0.65625 C-2 0 -2 0 0 0 Z " fill="#3A26B9" transform="translate(213,51)"/>
<path d="M0 0 C0 0.99 0 1.98 0 3 C-1.98 3.33 -3.96 3.66 -6 4 C-6 2.68 -6 1.36 -6 0 C-3.50907189 -1.24546405 -2.58919267 -0.7767578 0 0 Z " fill="#E7E5F6" transform="translate(81,84)"/>
<path d="M0 0 C0.66 0.33 1.32 0.66 2 1 C1.67 1.99 1.34 2.98 1 4 C-2.5625 5.1875 -2.5625 5.1875 -6 6 C-6 5.01 -6 4.02 -6 3 C-4.03533587 1.93224776 -2.03144641 0.93446535 0 0 Z " fill="#311CB5" transform="translate(261,46)"/>
<path d="M0 0 C0.165 0.639375 0.33 1.27875 0.5 1.9375 C1.781786 4.16119241 1.781786 4.16119241 3.9140625 4.48828125 C5.93575155 4.7275978 7.96841939 4.86893028 10 5 C10 5.33 10 5.66 10 6 C5.545 6.495 5.545 6.495 1 7 C0.67 4.69 0.34 2.38 0 0 Z " fill="#6E5FCB" transform="translate(198,89)"/>
</svg>
